<svg id="SvgjsSvg1006" width="5000px" height="4688.488924050633px" xmlns="http://www.w3.org/2000/svg" version="1.1" xmlns:xlink="http://www.w3.org/1999/xlink" xmlns:svgjs="http://svgjs.com/svgjs" viewBox="0 0 158 148.15625"><defs id="SvgjsDefs1007"></defs><g id="SvgjsG1009" transform="rotate(0 79 72.578125)"><svg width="158" viewBox="0 0 160 147" xmlns="http://www.w3.org/2000/svg" version="1.1" xmlns:xlink="http://www.w3.org/1999/xlink" xmlns:svgjs="http://svgjs.com/svgjs" preserveAspectRatio="none" height="145.15625" x="0" y="0"><g><svg viewBox="20 26.5 160 147" height="147" width="160" xmlns="http://www.w3.org/2000/svg" data-type="color">
    <g>
        <path d="M111.1 173.5H57.6c-1.2 0-2.2-1-2.2-2.2L86.7 28.7c0-1.2 1-2.2 2.2-2.2h53.5c1.2 0 2.2 1 2.2 2.2l-31.3 142.6c0 1.2-1 2.2-2.2 2.2z" data-color="1" fill="#030000"></path>
        <path d="M71 71.1h-8.9l-12.7 57.8h8.9L71 71.1z" data-color="2" fill="#c3fa37"></path>
        <path d="M34.5 128.9h8.6l12.7-57.8h-8.6l-12.7 57.8z" data-color="2" fill="#c3fa37"></path>
        <path d="M40.9 71.1h-6.1c-1.2 0-2.2 1-2.2 2.2L20 126.7c0 1.2 1 2.2 2.2 2.2h6l12.7-57.8z" data-color="2" fill="#c3fa37"></path>
        <path d="M177.8 71.1H77.3l-12.7 57.8h100.7c1.2 0 2.2-1 2.2-2.2L180 73.3c0-1.2-1-2.2-2.2-2.2z" data-color="2" fill="#c3fa37"></path>
    </g>
</svg></g><defs id="SvgjsDefs1008"></defs></svg></g><g id="SvgjsG1011" transform="rotate(0 99.8671875 72.5703125)"><svg xmlns="http://www.w3.org/2000/svg" xmlns:xlink="http://www.w3.org/1999/xlink" width="87.734375" viewBox="1.2599999904632568 6.480000019073486 87.73999786376953 26.279998779296875" overflow="visible" style="overflow: visible;" transform="" version="1.1" xmlns:svgjs="http://svgjs.com/svgjs" preserveAspectRatio="none" height="26.265625" x="56" y="59.4375" fill="#000000" stroke="none"><path stroke="none" fill="#404c41" d="M3.96 11.70L3.96 11.70L3.96 11.70Q3.96 13.18 4.82 14.24L4.82 14.24L4.82 14.24Q5.69 15.30 6.98 16.20L6.98 16.20L6.98 16.20Q8.28 17.10 9.81 17.96L9.81 17.96L9.81 17.96Q11.34 18.83 12.64 19.93L12.64 19.93L12.64 19.93Q13.93 21.02 14.80 22.50L14.80 22.50L14.80 22.50Q15.66 23.98 15.66 26.10L15.66 26.10L15.66 26.10Q15.66 27.50 15.16 28.73L15.16 28.73L15.16 28.73Q14.65 29.95 13.73 30.85L13.73 30.85L13.73 30.85Q12.82 31.75 11.56 32.26L11.56 32.26L11.56 32.26Q10.30 32.76 8.82 32.76L8.82 32.76L8.82 32.76Q7.45 32.76 6.48 32.49L6.48 32.49L6.48 32.49Q5.51 32.22 4.86 31.86L4.86 31.86L4.86 31.86Q4.10 31.46 3.60 30.96L3.60 30.96L3.60 30.96Q3.31 31.50 2.83 31.97L2.83 31.97L2.83 31.97Q2.34 32.44 1.80 32.58L1.80 32.58L1.26 32.58L1.26 32.58Q1.30 32.08 1.33 31.50L1.33 31.50L1.33 31.50Q1.37 31.03 1.40 30.46L1.40 30.46L1.40 30.46Q1.44 29.88 1.44 29.34L1.44 29.34L1.44 29.34Q1.44 28.73 1.40 28.13L1.40 28.13L1.40 28.13Q1.37 27.54 1.33 27.04L1.33 27.04L1.33 27.04Q1.30 26.46 1.26 25.92L1.26 25.92L1.80 25.92L1.80 25.92Q2.63 28.91 4.19 30.47L4.19 30.47L4.19 30.47Q5.76 32.04 8.46 32.04L8.46 32.04L8.46 32.04Q10.62 32.04 11.97 30.65L11.97 30.65L11.97 30.65Q13.32 29.27 13.32 26.82L13.32 26.82L13.32 26.82Q13.32 25.34 12.46 24.28L12.46 24.28L12.46 24.28Q11.59 23.22 10.30 22.32L10.30 22.32L10.30 22.32Q9.00 21.42 7.47 20.56L7.47 20.56L7.47 20.56Q5.94 19.69 4.64 18.59L4.64 18.59L4.64 18.59Q3.35 17.50 2.48 16.02L2.48 16.02L2.48 16.02Q1.62 14.54 1.62 12.42L1.62 12.42L1.62 12.42Q1.62 11.20 2.09 10.12L2.09 10.12L2.09 10.12Q2.56 9.04 3.38 8.23L3.38 8.23L3.38 8.23Q4.21 7.42 5.33 6.95L5.33 6.95L5.33 6.95Q6.44 6.48 7.74 6.48L7.74 6.48L7.74 6.48Q8.82 6.48 9.65 6.77L9.65 6.77L9.65 6.77Q10.48 7.06 11.05 7.38L11.05 7.38L11.05 7.38Q11.70 7.78 12.24 8.28L12.24 8.28L12.24 8.28Q12.53 7.74 13.01 7.27L13.01 7.27L13.01 7.27Q13.50 6.80 14.04 6.66L14.04 6.66L14.58 6.66L14.58 6.66Q14.51 7.20 14.47 7.74L14.47 7.74L14.47 7.74Q14.44 8.24 14.42 8.80L14.42 8.80L14.42 8.80Q14.40 9.36 14.40 9.90L14.40 9.90L14.40 9.90Q14.40 10.51 14.42 11.11L14.42 11.11L14.42 11.11Q14.44 11.70 14.47 12.20L14.47 12.20L14.47 12.20Q14.51 12.78 14.58 13.32L14.58 13.32L14.04 13.32L14.04 13.32Q13.21 10.33 11.74 8.77L11.74 8.77L11.74 8.77Q10.26 7.20 8.10 7.20L8.10 7.20L8.10 7.20Q6.34 7.20 5.15 8.42L5.15 8.42L5.15 8.42Q3.96 9.65 3.96 11.70ZM25.58 7.92L25.58 31.50L32.06 31.50L32.06 31.50Q32.06 29.99 32.67 28.69L32.67 28.69L32.67 28.69Q33.28 27.40 34.22 26.46L34.22 26.46L34.58 26.46L34.58 26.46Q34.51 26.93 34.47 27.43L34.47 27.43L34.47 27.43Q34.44 27.86 34.42 28.37L34.42 28.37L34.42 28.37Q34.40 28.87 34.40 29.34L34.40 29.34L34.40 29.34Q34.40 30.02 34.42 30.55L34.42 30.55L34.42 30.55Q34.44 31.07 34.47 31.46L34.47 31.46L34.47 31.46Q34.51 31.90 34.58 32.22L34.58 32.22L20.36 32.22L20.36 31.86L22.52 31.32L22.52 7.92L20.36 7.38L20.36 7.02L27.74 7.02L27.74 7.38L25.58 7.92ZM44.50 7.92L44.50 31.32L46.66 31.86L46.66 32.22L39.28 32.22L39.28 31.86L41.44 31.32L41.44 7.92L39.28 7.38L39.28 7.02L46.66 7.02L46.66 7.38L44.50 7.92ZM51.90 7.02L58.20 7.02L58.20 7.02Q60.58 7.02 62.57 7.88L62.57 7.88L62.57 7.88Q64.57 8.75 66.05 10.37L66.05 10.37L66.05 10.37Q67.52 11.99 68.35 14.33L68.35 14.33L68.35 14.33Q69.18 16.67 69.18 19.62L69.18 19.62L69.18 19.62Q69.18 22.61 68.35 24.95L68.35 24.95L68.35 24.95Q67.52 27.29 66.05 28.91L66.05 28.91L66.05 28.91Q64.57 30.53 62.57 31.37L62.57 31.37L62.57 31.37Q60.58 32.22 58.20 32.22L58.20 32.22L51.90 32.22L51.90 31.86L54.06 31.32L54.06 7.92L51.90 7.38L51.90 7.02ZM58.20 7.74L57.12 7.74L57.12 31.50L58.20 31.50L58.20 31.50Q59.75 31.50 61.13 30.83L61.13 30.83L61.13 30.83Q62.52 30.17 63.55 28.73L63.55 28.73L63.55 28.73Q64.57 27.29 65.17 25.04L65.17 25.04L65.17 25.04Q65.76 22.79 65.76 19.62L65.76 19.62L65.76 19.62Q65.76 16.45 65.17 14.20L65.17 14.20L65.17 14.20Q64.57 11.95 63.55 10.51L63.55 10.51L63.55 10.51Q62.52 9.07 61.13 8.41L61.13 8.41L61.13 8.41Q59.75 7.74 58.20 7.74L58.20 7.74ZM79.28 31.50L86.48 31.50L86.48 31.50Q86.48 29.99 87.09 28.69L87.09 28.69L87.09 28.69Q87.70 27.40 88.64 26.46L88.64 26.46L89 26.46L89 26.46Q88.93 26.93 88.89 27.43L88.89 27.43L88.89 27.43Q88.86 27.86 88.84 28.37L88.84 28.37L88.84 28.37Q88.82 28.87 88.82 29.34L88.82 29.34L88.82 29.34Q88.82 30.02 88.84 30.55L88.84 30.55L88.84 30.55Q88.86 31.07 88.89 31.46L88.89 31.46L88.89 31.46Q88.93 31.90 89 32.22L89 32.22L74.06 32.22L74.06 31.86L76.22 31.32L76.22 7.92L74.06 7.38L74.06 7.02L88.64 7.02L88.64 7.02Q88.57 7.34 88.53 7.78L88.53 7.78L88.53 7.78Q88.50 8.17 88.48 8.69L88.48 8.69L88.48 8.69Q88.46 9.22 88.46 9.90L88.46 9.90L88.46 9.90Q88.46 10.40 88.48 10.89L88.48 10.89L88.48 10.89Q88.50 11.38 88.53 11.81L88.53 11.81L88.53 11.81Q88.57 12.31 88.64 12.78L88.64 12.78L88.28 12.78L88.28 12.78Q87.34 11.84 86.73 10.55L86.73 10.55L86.73 10.55Q86.12 9.25 86.12 7.74L86.12 7.74L79.28 7.74L79.28 18.54L82.70 18.54L84.32 15.30L84.68 15.30L84.68 22.50L84.32 22.50L82.70 19.26L79.28 19.26L79.28 31.50Z" transform="rotate(0 45.12999892234802 19.619999408721924)"></path><defs id="SvgjsDefs1010"></defs></svg></g></svg>